<?xml version="1.0" encoding="UTF-8"?>
<svg id="_Слой_1" data-name="Слой_1" xmlns="http://www.w3.org/2000/svg" version="1.1" viewBox="0 0 360 361.5">
  <!-- Generator: Adobe Illustrator 30.2.1, SVG Export Plug-In . SVG Version: 2.1.1 Build 1)  -->
  <defs>
    <style>
      .st0 {
        fill: #cee9e3;
      }

      .st1 {
        fill: #f7893d;
      }

      .st2 {
        fill: #0c0a08;
      }

      .st3 {
        fill: #7ab985;
      }

      .st4 {
        fill: #4fa896;
      }

      .st5 {
        fill: #a8d2cb;
      }
    </style>
  </defs>
  <path class="st0" d="M0,361.5V0h360v361.5H0ZM265.5,69.85c.08,1.57,1.44,2.26,2.35,3.01,64.07,52.11,69.24,147.96,11.13,206.71-5.65,5.71-6.51,14.34-.55,20.57s14.93,5.69,20.7-.1c70.88-71.13,64.01-188.24-14.68-250.72-.84-.67-1.57-1.54-3.07-1.36-3.15-4.64-8.72-7.32-12.84-9.88C195.65-7.32,100.66,10.01,48.02,76.12-4.76,142.4-.54,238.31,59.62,299.46c5.79,5.88,14.95,7.33,21.37.96,5.79-5.75,5.5-14.99-.19-20.7-51.66-51.87-54.06-134.37-7.22-189.16,46.9-54.86,128.14-65.27,187.74-22.74,1.15.82,2.65,1.69,4.19,2.04ZM271.67,142c3.12-5.27-11.95-12.48-16.73-14.44,9.47-11.52,14.9-24.69,17.12-39.07.37-2.41-1.91-4.74-4.31-4.41-14.38,2.01-27.51,7.37-39.31,16.98-1.79-4.41-10-21.54-15.76-15.78-12.6,11.6-18.38,22.09-16.7,40.16-17.94-3.22-35.3,2.86-45.16,18.03l-66.17,103.02c-4.67,7.28-4.66,15.78,1.22,22.11,5,5.39,14.06,7.62,21.16,3.13l103.6-65.6c15.6-9.88,23.62-27.16,19.95-46.18,17.56,1.68,30.64-5.13,41.08-17.97Z"/>
  <path class="st4" d="M281.38,47.95c3.25,4.8,2.49,11.53-.41,15.82-3.44,5.09-9,6.77-15.47,6.08-1.53-.35-3.04-1.22-4.19-2.04-59.59-42.53-140.84-32.11-187.74,22.74-46.85,54.79-44.44,137.29,7.22,189.16,5.69,5.71,5.98,14.95.19,20.7-6.42,6.37-15.58,4.92-21.37-.96C-.54,238.31-4.76,142.4,48.02,76.12,100.66,10.01,195.65-7.32,268.54,38.07c4.12,2.56,9.69,5.24,12.84,9.88Z"/>
  <path class="st5" d="M265.5,69.85c6.47.69,12.03-1,15.47-6.08,2.9-4.29,3.66-11.02.41-15.82,1.5-.17,2.23.69,3.07,1.36,78.69,62.48,85.57,179.59,14.68,250.72-5.77,5.79-14.92,6.15-20.7.1s-5.1-14.86.55-20.57c58.1-58.74,52.94-154.6-11.13-206.71-.92-.74-2.27-1.44-2.35-3.01Z"/>
  <path class="st2" d="M271.67,142c-10.44,12.84-23.51,19.64-41.08,17.97,3.67,19.01-4.34,36.3-19.95,46.18l-103.6,65.6c-7.09,4.49-16.15,2.26-21.16-3.13-5.88-6.33-5.9-14.84-1.22-22.11l66.17-103.02c9.85-15.17,27.22-21.25,45.16-18.03-1.69-18.07,4.1-28.57,16.7-40.16,5.76-5.76,13.97,11.37,15.76,15.78,11.79-9.61,24.93-14.97,39.31-16.98,2.4-.34,4.68,2,4.31,4.41-2.21,14.37-7.65,27.54-17.12,39.07,4.78,1.96,19.84,9.17,16.73,14.44ZM239.05,122.09c-4.86,5.16-10.23,9.38-14.8,15.53,20.92-4.94,35.7-24.96,38.99-44.89-12.71,2.34-22.85,7.91-31.66,15.82-6.04,6.76-11.48,14.04-13.78,23.54l16.95-15.83c1.63-1.52,4.1-.35,4.87.81,1.05,1.57.69,3.69-.56,5.01ZM210.08,130.46c2.92-8.54,6.71-15.67,12.02-22.55-1.02-5.33-3.09-10.26-6.75-14.5-10.1,8.82-14.51,21.95-10.97,34.51,1.77,1.19,3.37,2.36,5.7,2.54ZM90.07,252.48c-2.66,4.23-.79,9.79,2.6,12.21,3.85,2.75,8.48,2.08,12.41-.49l17.55-11.48c-2.68-4.75-14.76-11.28-9.58-15.52,1.37-1.12,3.8-1.16,5.18.17l11.47,11.1,29.47-18.75c.9-.57,1.3-1.22,1.26-2.09-.15-2.99-17.78-13.51-9.72-17.16,1.9-.86,3.61-.23,5.07,1.23,4.1,4.09,7.67,8.2,12.59,12.21l31.68-20.37-13.44-13.66c-1.54-1.57-1-3.82.17-5.02,1.26-1.29,3.55-1.45,4.95-.1l15.03,14.58c12.21-7.17,17.96-19.98,16.86-33.67-1.04-12.98-9.09-23.89-19.66-29.32-12.26-6.31-26.14-5.77-37.75,1.68,5.39,5.56,10.79,10.42,15.61,16.16,1.37,1.64.16,4.28-1.11,4.95-1.58.84-3.37.65-4.74-.69l-15.55-15.12-15.52,23.38c-.79,1.2.07,2.53.83,3.29l14.25,14.27c1.63,1.63,1.9,3.95.44,5.63-1.23,1.43-3.88,1.78-5.53.14l-14.68-14.58c-2.47,1.08-3.37,3.45-4.73,5.63l-16.03,25.68,9.16,9.43c1.58,1.62,1.3,4.36-.14,5.58s-3.6,1.23-5.09-.22l-8.14-7.96c-2.36,2.42-3.64,5.71-5.8,8.4-2.36,2.93-3.93,5.95-5.92,9.12l-13.44,21.37ZM262.48,140.16c-4.95-3.66-9.08-5.42-14.37-6.37-6.69,5.46-14.32,8.71-22.19,12.04-1.27,3.24,2.53,6.27,5.78,6.57,11.8,1.1,23.26-2.41,30.78-12.24Z"/>
  <path class="st1" d="M90.07,252.48l13.44-21.37c1.99-3.17,3.57-6.19,5.92-9.12,2.16-2.69,3.44-5.98,5.8-8.4l8.14,7.96c1.48,1.45,3.65,1.44,5.09.22s1.72-3.95.14-5.58l-9.16-9.43,16.03-25.68c1.36-2.18,2.26-4.55,4.73-5.63l14.68,14.58c1.65,1.64,4.3,1.3,5.53-.14,1.45-1.69,1.19-4-.44-5.63l-14.25-14.27c-.75-.75-1.62-2.09-.83-3.29l15.52-23.38,15.55,15.12c1.38,1.34,3.16,1.53,4.74.69,1.27-.67,2.48-3.32,1.11-4.95-4.82-5.74-10.23-10.6-15.61-16.16,11.61-7.46,25.49-7.99,37.75-1.68,10.57,5.44,18.62,16.34,19.66,29.32,1.1,13.69-4.64,26.5-16.86,33.67l-15.03-14.58c-1.39-1.35-3.68-1.19-4.95.1-1.17,1.19-1.71,3.45-.17,5.02l13.44,13.66-31.68,20.37c-4.91-4.01-8.48-8.12-12.59-12.21-1.46-1.46-3.17-2.09-5.07-1.23-8.06,3.65,9.57,14.17,9.72,17.16.04.87-.36,1.52-1.26,2.09l-29.47,18.75-11.47-11.1c-1.38-1.34-3.81-1.3-5.18-.17-5.18,4.24,6.91,10.77,9.58,15.52l-17.55,11.48c-3.93,2.57-8.56,3.24-12.41.49-3.39-2.42-5.26-7.98-2.6-12.21ZM182.43,177.01c0-2.05-1.66-3.71-3.71-3.71s-3.71,1.66-3.71,3.71,1.66,3.71,3.71,3.71,3.71-1.66,3.71-3.71Z"/>
  <path class="st3" d="M239.05,122.09c1.25-1.32,1.61-3.45.56-5.01-.77-1.15-3.24-2.32-4.87-.81l-16.95,15.83c2.31-9.5,7.74-16.77,13.78-23.54,8.81-7.91,18.94-13.48,31.66-15.82-3.29,19.93-18.07,39.95-38.99,44.89,4.57-6.15,9.94-10.38,14.8-15.53Z"/>
  <path class="st3" d="M210.08,130.46c-2.33-.17-3.93-1.35-5.7-2.54-3.54-12.56.86-25.69,10.97-34.51,3.67,4.24,5.73,9.17,6.75,14.5-5.3,6.88-9.1,14.01-12.02,22.55Z"/>
  <path class="st3" d="M262.48,140.16c-7.52,9.82-18.99,13.34-30.78,12.24-3.24-.3-7.05-3.33-5.78-6.57,7.87-3.33,15.5-6.58,22.19-12.04,5.29.96,9.42,2.72,14.37,6.37Z"/>
  <circle class="st2" cx="178.73" cy="177.01" r="3.71"/>
</svg>