<?xml version="1.0" encoding="UTF-8"?>
<svg id="_Слой_1" data-name="Слой_1" xmlns="http://www.w3.org/2000/svg" version="1.1" viewBox="0 0 384 384">
  <!-- Generator: Adobe Illustrator 30.2.1, SVG Export Plug-In . SVG Version: 2.1.1 Build 1)  -->
  <defs>
    <style>
      .st0 {
        fill: #cee9e3;
      }

      .st1 {
        fill: #a7d2cb;
      }

      .st2 {
        fill: #50a896;
      }

      .st3 {
        fill: #7ec188;
      }

      .st4 {
        fill: #fd8b3c;
      }
    </style>
  </defs>
  <path class="st0" d="M314.25,0c.26,1.32,1.82.47,3,.6,12.82,1.44,24.98,4.77,35.73,11.6,19.43,12.33,27.47,31.49,30.38,53.78.18,1.39-.82,3.27.63,3.77v244.5c-1.09.06-.52,1.28-.62,2.24-4.3,40.4-26.41,62.68-66.85,66.92-1.03.11-2.21-.53-2.28.59H69.75c-.07-1.09-1.24-.52-2.27-.62-39.85-3.79-62.85-27.12-66.87-66.87-.1-1.01.5-2.2-.61-2.27V69.75C3.31,45,10.32,24.45,32.91,11.08,44.34,4.3,57.03,2.03,69.75,0h244.5ZM267.65,94.62c-.1,1.37,1.06,2.12,1.9,2.8,56.59,45.93,60.48,130.92,8.82,182.14-4.39,4.35-4.42,11.78-.45,16.7,3.62,4.48,11.76,6.86,17.04,2.12,14.38-12.93,25.01-29.35,32.79-47.03,26.74-60.78,9.01-132.26-42.54-173.9-1.08-.88-2-1.36-3.19-1.66-1.32-.33-1.31-1.99-2.07-2.55C209.56,21.52,110.18,41.17,65.04,115.46c-35.32,58.15-26.78,133.34,21.97,181.93,5.03,5.01,13.96,4.49,18.47-.73,5.09-5.9,3.51-13.34-1.43-18.4-49.25-50.35-46.26-130.85,6.05-177.45,42.93-38.25,106.82-41.77,153.91-7.64,1.01.74,2.46,1.37,3.64,1.45ZM205.56,142.56c-18.56-.91-30.3,2.52-40.99,19.17l-57.35,89.36c-3.87,6.03-2.74,13.2,1.83,18.2,4.01,4.39,11.42,7.24,17.42,3.45l85.86-54.25c7.04-4.45,13.7-8.61,18.53-15.25,6.23-8.57,7.35-18.49,6.22-29.08,13.15,2.46,25.4-3.63,34.19-13.9,1.15-1.34,2.62-2.09,2.5-3.9-.29-4.34-10.38-9.39-14.67-11.51,7.76-9.82,12.78-20.77,14.68-33.09.38-2.49-1.84-6-4.24-5.67-12.75,1.71-24.28,6.5-34.43,14.81-2.51-6.02-6.13-11.1-11.81-15.3-11.69,8.43-21.05,22.56-17.75,36.98Z"/>
  <path class="st2" d="M282.01,75.8c1.19,6.16,1.94,10.48-2.93,15.38-3.03,3.04-7.11,3.73-11.42,3.45-1.18-.08-2.63-.71-3.64-1.45-47.09-34.13-110.98-30.61-153.91,7.64-52.3,46.6-55.3,127.1-6.05,177.45,4.95,5.06,6.52,12.5,1.43,18.4-4.51,5.23-13.44,5.74-18.47.73-48.75-48.59-57.29-123.78-21.97-181.93,45.13-74.3,144.52-93.94,214.89-42.22.76.56.75,2.22,2.07,2.55Z"/>
  <path class="st4" d="M205.56,142.56c1.19,1,2.48,1.91,3.99,1.97,2.94.12,4.97,1.88,7.51,2.74,3.49,1.19,7.59.42,10.97,1.12,3.19,3.52,2.65,8.08,3.65,12.29,1.14,4.78,3.46,9.31,5.4,13.46,1.13,10.59,0,20.51-6.22,29.08-4.83,6.64-11.49,10.8-18.53,15.25l-85.86,54.25c-6,3.79-13.41.94-17.42-3.45-4.57-5-5.7-12.17-1.83-18.2l57.35-89.36c10.69-16.65,22.43-20.08,40.99-19.17Z"/>
  <path class="st1" d="M267.65,94.62c4.31.29,8.4-.4,11.42-3.45,4.88-4.91,4.12-9.22,2.93-15.38,1.19.3,2.11.78,3.19,1.66,51.55,41.64,69.28,113.12,42.54,173.9-7.77,17.68-18.41,34.1-32.79,47.03-5.28,4.75-13.42,2.36-17.04-2.12-3.98-4.93-3.94-12.36.45-16.7,51.66-51.22,47.78-136.21-8.82-182.14-.84-.68-2-1.43-1.9-2.8Z"/>
  <path class="st3" d="M237.08,174.15c-1.94-4.16-4.27-8.68-5.4-13.46-1-4.21-.46-8.77-3.65-12.29-3.38-.7-7.48.07-10.97-1.12-2.54-.87-4.57-2.63-7.51-2.74-1.51-.06-2.79-.97-3.99-1.97-3.3-14.42,6.06-28.55,17.75-36.98,5.67,4.2,9.3,9.29,11.81,15.3,10.14-8.31,21.68-13.1,34.43-14.81,2.41-.32,4.63,3.19,4.24,5.67-1.9,12.32-6.92,23.28-14.68,33.09,4.29,2.13,14.38,7.17,14.67,11.51.12,1.81-1.35,2.56-2.5,3.9-8.78,10.26-21.04,16.35-34.19,13.9Z"/>
</svg>